<?xml version="1.0" encoding="UTF-8" standalone="no"?>
<svg
   xmlns:dc="http://purl.org/dc/elements/1.1/"
   xmlns:cc="http://creativecommons.org/ns#"
   xmlns:rdf="http://www.w3.org/1999/02/22-rdf-syntax-ns#"
   xmlns:svg="http://www.w3.org/2000/svg"
   xmlns="http://www.w3.org/2000/svg"
   xmlns:sodipodi="http://sodipodi.sourceforge.net/DTD/sodipodi-0.dtd"
   xmlns:inkscape="http://www.inkscape.org/namespaces/inkscape"
   viewBox="0 0 45.119999 41.021999"
   version="1.1"
   x="0px"
   y="0px"
   id="svg2"
   inkscape:version="0.91 r13725"
   sodipodi:docname="back.svg"
   width="45.119999"
   height="41.021999">
  <metadata
     id="metadata28">
    <rdf:RDF>
      <cc:Work
         rdf:about="">
        <dc:format>image/svg+xml</dc:format>
        <dc:type
           rdf:resource="http://purl.org/dc/dcmitype/StillImage" />
        <dc:title>arrow-icon@1x</dc:title>
      </cc:Work>
    </rdf:RDF>
  </metadata>
  <defs
     id="defs26" />
  <sodipodi:namedview
     pagecolor="#ffffff"
     bordercolor="#666666"
     borderopacity="1"
     objecttolerance="10"
     gridtolerance="10"
     guidetolerance="10"
     inkscape:pageopacity="0"
     inkscape:pageshadow="2"
     inkscape:window-width="1871"
     inkscape:window-height="1176"
     id="namedview24"
     showgrid="false"
     fit-margin-top="0"
     fit-margin-left="0"
     fit-margin-right="0"
     fit-margin-bottom="0"
     inkscape:zoom="4.604878"
     inkscape:cx="22.999314"
     inkscape:cy="15.397514"
     inkscape:window-x="1649"
     inkscape:window-y="24"
     inkscape:window-maximized="1"
     inkscape:current-layer="svg2" />
  <title
     id="title4">arrow-icon@1x</title>
  <desc
     id="desc6">Created with Sketch.</desc>
  <g
     id="g8"
     style="fill:none;fill-rule:evenodd;stroke:none;stroke-width:1"
     transform="translate(-6.8571429e-4,-5.1428575e-4)">
    <g
       transform="translate(-1282,-2923)"
       id="g10"
       style="fill:#000000">
      <g
         transform="translate(275,1935)"
         id="g12">
        <g
           transform="translate(75,512)"
           id="g14">
          <g
             transform="translate(932,476)"
             id="g16">
            <path
               d="m 42.2064,17.641371 -32.3451429,0 L 22.533257,4.9728 c 1.131429,-1.1348571 1.131429,-2.9862857 0,-4.12114286 -1.134857,-1.13485714 -2.989714,-1.13485714 -4.121143,0 L 0.84754286,18.4128 c -0.57257143,0.576 -0.85028572,1.337143 -0.84,2.098286 0,0.01714 -0.006857146,0.03086 -0.006857146,0.04457 l 0,0.0034 c 0,0.02057 0.013714286,0.04457 0.013714286,0.06857 0.01028571,0.356572 0.07542857,0.709714 0.21257143,1.045714 0.0857143,0.202286 0.23314286,0.366858 0.36342857,0.548572 0.0925714,0.126857 0.144,0.277714 0.25714286,0.390857 L 18.412114,40.173943 c 1.131429,1.131428 2.986286,1.131428 4.121143,0 1.131429,-1.134857 1.131429,-2.989714 0,-4.121143 L 9.9504,23.469943 l 32.256,0 c 1.604571,0 2.914286,-1.313143 2.914286,-2.910857 0,-1.604572 -1.309715,-2.917715 -2.914286,-2.917715"
               id="path18"
               inkscape:connector-curvature="0" />
          </g>
        </g>
      </g>
    </g>
  </g>
</svg>
