<?xml version="1.0" encoding="UTF-8" standalone="no"?>
<svg
   xmlns:dc="http://purl.org/dc/elements/1.1/"
   xmlns:cc="http://creativecommons.org/ns#"
   xmlns:rdf="http://www.w3.org/1999/02/22-rdf-syntax-ns#"
   xmlns:svg="http://www.w3.org/2000/svg"
   xmlns="http://www.w3.org/2000/svg"
   xmlns:sodipodi="http://sodipodi.sourceforge.net/DTD/sodipodi-0.dtd"
   xmlns:inkscape="http://www.inkscape.org/namespaces/inkscape"
   version="1.1"
   x="0px"
   y="0px"
   viewBox="0 0 89.962624 90"
   xml:space="preserve"
   id="svg2"
   inkscape:version="0.91 r13725"
   sodipodi:docname="edit.svg"
   width="89.962624"
   height="90"><metadata
     id="metadata16"><rdf:RDF><cc:Work
         rdf:about=""><dc:format>image/svg+xml</dc:format><dc:type
           rdf:resource="http://purl.org/dc/dcmitype/StillImage" /><dc:title></dc:title></cc:Work></rdf:RDF></metadata><defs
     id="defs14" /><sodipodi:namedview
     pagecolor="#ffffff"
     bordercolor="#666666"
     borderopacity="1"
     objecttolerance="10"
     gridtolerance="10"
     guidetolerance="10"
     inkscape:pageopacity="0"
     inkscape:pageshadow="2"
     inkscape:window-width="1871"
     inkscape:window-height="1176"
     id="namedview12"
     showgrid="false"
     fit-margin-top="0"
     fit-margin-left="0"
     fit-margin-right="0"
     fit-margin-bottom="0"
     inkscape:zoom="1.888"
     inkscape:cx="45"
     inkscape:cy="32.5"
     inkscape:window-x="1649"
     inkscape:window-y="24"
     inkscape:window-maximized="1"
     inkscape:current-layer="svg2" /><g
     id="g4"
     transform="translate(-5,-5)"><path
       d="m 92.2,17.9 -10,-10 C 80.3,5.9 77.9,5 75.4,5 73,5 70.5,5.9 68.6,7.8 L 7.8,68.5 C 6,70.3 5,72.7 5,75.2 L 5,90 c 0,2.8 2.3,5 5,5 l 14.7,0 c 2.5,0 5,-1 6.8,-2.8 L 92.1,31.4 c 3.8,-3.8 3.8,-9.8 0.1,-13.5 z M 27,87.6 c -0.6,0.6 -1.4,0.9 -2.2,0.9 l -13.3,0 0,-13.3 c 0,-0.8 0.3,-1.6 0.9,-2.2 L 58.2,27.3 72.6,41.7 27,87.6 Z M 87.6,26.8 77.2,37.1 62.8,22.8 73.2,12.4 c 0.8,-0.8 1.7,-0.9 2.2,-0.9 0.5,0 1.4,0.1 2.2,0.9 l 10,10 c 1.2,1.2 1.2,3.2 0,4.4 z"
       id="path6"
       inkscape:connector-curvature="0" /></g></svg>