<?xml version="1.0" encoding="UTF-8" standalone="no"?>
<svg
   xmlns:dc="http://purl.org/dc/elements/1.1/"
   xmlns:cc="http://creativecommons.org/ns#"
   xmlns:rdf="http://www.w3.org/1999/02/22-rdf-syntax-ns#"
   xmlns:svg="http://www.w3.org/2000/svg"
   xmlns="http://www.w3.org/2000/svg"
   xmlns:sodipodi="http://sodipodi.sourceforge.net/DTD/sodipodi-0.dtd"
   xmlns:inkscape="http://www.inkscape.org/namespaces/inkscape"
   version="1.1"
   x="0px"
   y="0px"
   viewBox="0 0 81.746254 81.744499"
   enable-background="new 0 0 96 96"
   xml:space="preserve"
   id="svg8"
   sodipodi:docname="move.svg"
   width="81.746254"
   height="81.744499"
   inkscape:version="0.92.3 (2405546, 2018-03-11)"><metadata
     id="metadata14"><rdf:RDF><cc:Work
         rdf:about=""><dc:format>image/svg+xml</dc:format><dc:type
           rdf:resource="http://purl.org/dc/dcmitype/StillImage" /><dc:title /></cc:Work></rdf:RDF></metadata><defs
     id="defs12" /><sodipodi:namedview
     pagecolor="#ffffff"
     bordercolor="#666666"
     borderopacity="1"
     objecttolerance="10"
     gridtolerance="10"
     guidetolerance="10"
     inkscape:pageopacity="0"
     inkscape:pageshadow="2"
     inkscape:window-width="1869"
     inkscape:window-height="1025"
     id="namedview10"
     showgrid="false"
     fit-margin-top="0"
     fit-margin-left="0"
     fit-margin-right="0"
     fit-margin-bottom="0"
     inkscape:zoom="1.9666667"
     inkscape:cx="-38.194545"
     inkscape:cy="28.87125"
     inkscape:window-x="51"
     inkscape:window-y="27"
     inkscape:window-maximized="1"
     inkscape:current-layer="svg8" /><path
     d="m 80.87125,38.75125 -10.278,-10.279 c -1.167,-1.167 -2.916,-1.328 -3.888,-0.358 -0.973,0.969 -0.813,2.717 0.354,3.884 l 4.261,4.259 c 1.166,1.167 0.771,2.121 -0.879,2.121 h -24.072 c -1.65,0 -3,-1.35 -3,-3 v -24.073 c 0,-1.65 0.954,-2.045 2.121,-0.878 l 4.257,4.258 c 1.167,1.167 2.915,1.327 3.886,0.356 0.97,-0.971 0.809,-2.72 -0.357,-3.886 l -10.282,-10.28 c -1.166,-1.167 -3.076,-1.167 -4.243,0 l -10.28,10.279 c -1.167,1.167 -1.328,2.916 -0.358,3.887 0.97,0.971 2.718,0.811 3.884,-0.356 l 4.258,-4.258 c 1.167,-1.167 2.121,-0.771 2.121,0.878 v 24.072 c 0,1.65 -1.35,3 -3,3 h -24.071 c -1.65,0 -2.045,-0.955 -0.878,-2.121 l 4.258,-4.258 c 1.167,-1.167 1.327,-2.915 0.356,-3.884 -0.971,-0.97 -2.72,-0.809 -3.887,0.358 l -10.279,10.279 c -1.167,1.167 -1.167,3.077 0,4.243 l 10.279,10.281 c 1.167,1.166 2.916,1.327 3.886,0.357 0.971,-0.971 0.811,-2.719 -0.356,-3.886 l -4.258,-4.257 c -1.167,-1.167 -0.771,-2.121 0.878,-2.121 h 24.072 c 1.65,0 3,1.35 3,3 v 24.071 c 0,1.65 -0.955,2.045 -2.121,0.879 l -4.259,-4.261 c -1.167,-1.166 -2.915,-1.326 -3.884,-0.354 -0.97,0.972 -0.809,2.721 0.358,3.888 l 10.28,10.278 c 1.167,1.167 3.077,1.167 4.243,0 l 10.28,-10.278 c 1.166,-1.167 1.328,-2.916 0.358,-3.888 -0.971,-0.973 -2.718,-0.813 -3.885,0.354 l -4.258,4.259 c -1.167,1.167 -2.121,0.772 -2.121,-0.878 v -24.069 c 0,-1.65 1.35,-3 3,-3 h 24.071 c 1.65,0 2.045,0.954 0.878,2.121 l -4.259,4.258 c -1.167,1.167 -1.327,2.914 -0.354,3.885 0.972,0.97 2.721,0.808 3.888,-0.358 l 10.278,-10.28 c 1.169,-1.167 1.169,-3.077 0.002,-4.244 z"
     id="path2"
     inkscape:connector-curvature="0"
     style="fill:#ffffff" /></svg>