<?xml version="1.0" encoding="UTF-8" standalone="no"?>
<svg
   xmlns:dc="http://purl.org/dc/elements/1.1/"
   xmlns:cc="http://creativecommons.org/ns#"
   xmlns:rdf="http://www.w3.org/1999/02/22-rdf-syntax-ns#"
   xmlns:svg="http://www.w3.org/2000/svg"
   xmlns="http://www.w3.org/2000/svg"
   xmlns:sodipodi="http://sodipodi.sourceforge.net/DTD/sodipodi-0.dtd"
   xmlns:inkscape="http://www.inkscape.org/namespaces/inkscape"
   version="1.1"
   x="0px"
   y="0px"
   viewBox="0 0 36 90"
   enable-background="new 0 0 100 100"
   xml:space="preserve"
   id="svg2"
   inkscape:version="0.91 r13725"
   sodipodi:docname="person.svg"
   width="36"
   height="90"><metadata
     id="metadata16"><rdf:RDF><cc:Work
         rdf:about=""><dc:format>image/svg+xml</dc:format><dc:type
           rdf:resource="http://purl.org/dc/dcmitype/StillImage" /><dc:title /></cc:Work></rdf:RDF></metadata><defs
     id="defs14" /><sodipodi:namedview
     pagecolor="#ffffff"
     bordercolor="#666666"
     borderopacity="1"
     objecttolerance="10"
     gridtolerance="10"
     guidetolerance="10"
     inkscape:pageopacity="0"
     inkscape:pageshadow="2"
     inkscape:window-width="1855"
     inkscape:window-height="1056"
     id="namedview12"
     showgrid="false"
     fit-margin-top="0"
     fit-margin-left="0"
     fit-margin-right="0"
     fit-margin-bottom="0"
     inkscape:zoom="3.776"
     inkscape:cx="-108.66704"
     inkscape:cy="43.172944"
     inkscape:window-x="65"
     inkscape:window-y="144"
     inkscape:window-maximized="1"
     inkscape:current-layer="svg2" /><path
     d="m 28.8,27.9 0,22.5 c 0,1.988 1.612,3.6 3.6,3.6 1.989,0 3.6,-1.612 3.6,-3.6 L 36,27 c 0,-4.97 -4.03,-9 -9,-9 L 9,18 c -4.97,0 -9,4.03 -9,9 l 0,23.4 c 0,1.988 1.612,3.6 3.6,3.6 1.988,0 3.6,-1.612 3.6,-3.6 l 0,-22.5 C 7.2,27.402 7.602,27 8.1,27 l 0,0 C 8.598,27 9,27.402 9,27.9 l 0,58.05 c 0,2.236 1.813,4.05 4.05,4.05 2.237,0 4.05,-1.813 4.05,-4.05 l 0,-31.05 C 17.1,54.403 17.503,54 18,54 l 0,0 c 0.498,0 0.9,0.402 0.9,0.9 l 0,31.05 C 18.9,88.186 20.713,90 22.95,90 25.187,90 27,88.187 27,85.95 L 27,27.9 C 27,27.402 27.402,27 27.9,27 l 0,0 c 0.497,0 0.9,0.402 0.9,0.9 z"
     id="path4"
     inkscape:connector-curvature="0"
     style="fill:#1da3f6;fill-opacity:1" /><path
     d="m 26.101,8.1 c 0,4.472 -3.629,8.1 -8.101,8.1 C 13.526,16.2 9.9,12.572 9.9,8.1 9.9,3.626 13.526,0 18,0 c 4.472,0 8.101,3.626 8.101,8.1 z"
     id="path6"
     inkscape:connector-curvature="0"
     style="fill:#1da3f6;fill-opacity:1" /></svg>