<?xml version="1.0" encoding="UTF-8" standalone="no"?>
<svg
   xmlns:ns="http://ns.adobe.com/SaveForWeb/1.0/"
   xmlns:dc="http://purl.org/dc/elements/1.1/"
   xmlns:cc="http://creativecommons.org/ns#"
   xmlns:rdf="http://www.w3.org/1999/02/22-rdf-syntax-ns#"
   xmlns:svg="http://www.w3.org/2000/svg"
   xmlns="http://www.w3.org/2000/svg"
   xmlns:sodipodi="http://sodipodi.sourceforge.net/DTD/sodipodi-0.dtd"
   xmlns:inkscape="http://www.inkscape.org/namespaces/inkscape"
   version="1.1"
   x="0px"
   y="0px"
   viewBox="0 0 52 52"
   enable-background="new 0 0 64 64"
   xml:space="preserve"
   id="svg2"
   inkscape:version="0.91 r13725"
   sodipodi:docname="save.svg"
   width="52"
   height="52"><defs
     id="defs20" /><sodipodi:namedview
     pagecolor="#ffffff"
     bordercolor="#666666"
     borderopacity="1"
     objecttolerance="10"
     gridtolerance="10"
     guidetolerance="10"
     inkscape:pageopacity="0"
     inkscape:pageshadow="2"
     inkscape:window-width="1871"
     inkscape:window-height="1176"
     id="namedview18"
     showgrid="false"
     fit-margin-top="0"
     fit-margin-left="0"
     fit-margin-right="0"
     fit-margin-bottom="0"
     inkscape:zoom="2.95"
     inkscape:cx="26"
     inkscape:cy="18"
     inkscape:window-x="1649"
     inkscape:window-y="24"
     inkscape:window-maximized="1"
     inkscape:current-layer="svg2" /><metadata
     id="metadata4"><ns:sfw><ns:slices /><ns:sliceSourceBounds
         y="-8160"
         x="-8165"
         width="16389"
         height="16384"
         bottomLeftOrigin="true" /></ns:sfw><rdf:RDF><cc:Work
         rdf:about=""><dc:format>image/svg+xml</dc:format><dc:type
           rdf:resource="http://purl.org/dc/dcmitype/StillImage" /><dc:title></dc:title></cc:Work></rdf:RDF></metadata><g
     id="g6"
     transform="translate(-6,-6)"><g
       id="g8"><path
         d="m 57.414,14.586 -8,-8 C 49.039,6.211 48.53,6 48,6 L 8,6 C 6.896,6 6,6.896 6,8 l 0,48 c 0,1.104 0.896,2 2,2 l 48,0 c 1.104,0 2,-0.896 2,-2 l 0,-40 c 0,-0.53 -0.211,-1.039 -0.586,-1.414 z M 20,10 l 20,0 0,12 -20,0 0,-12 z m 24,44 -24,0 0,-16 24,0 0,16 z m 10,0 -6,0 0,-18 c 0,-1.104 -0.896,-2 -2,-2 l -28,0 c -1.104,0 -2,0.896 -2,2 l 0,18 -6,0 0,-44 6,0 0,14 c 0,1.104 0.896,2 2,2 l 24,0 c 1.104,0 2,-0.896 2,-2 L 44,10 47.172,10 54,16.829 54,54 Z"
         id="path10"
         inkscape:connector-curvature="0" /><path
         d="m 34,12 c -1.104,0 -2,0.896 -2,2 l 0,4 c 0,1.104 0.896,2 2,2 1.104,0 2,-0.896 2,-2 l 0,-4 c 0,-1.104 -0.896,-2 -2,-2 z"
         id="path12"
         inkscape:connector-curvature="0" /></g></g></svg>