<svg xmlns="http://www.w3.org/2000/svg" xmlns:xlink="http://www.w3.org/1999/xlink" version="1.1" id="Layer_1" x="0px" y="0px" width="100px" height="78.8629737609px" viewBox="0 0 686.965 541.473" enable-background="new 0 0 686.965 541.473" xml:space="preserve">
<path fill="#000000" d="M255.548,428.055l-19.479-28.457c-1.483-2.213-3.104-4.422-4.726-6.626c-0.969-1.318-1.937-2.636-2.883-3.97  l-15.377-21.085c-1.545-2.15-3.194-4.286-4.849-6.421c-1.026-1.33-2.056-2.655-3.065-4.004l-7.985-10.41  c-4.654-6.12-9.848-12.695-16.32-20.658l-3.307-4.108c-4.312-5.359-8.77-10.901-13.301-16.229l-8.369-9.984  c-1.834-2.252-3.792-4.503-5.76-6.76l-2.782-3.212l-8.535-9.765c0,0-3.27-3.698-4.018-4.538l41.387-48.171  c1.174,0.833,5.58,3.985,5.58,3.985l11.33,8.182c1.248,0.921,2.567,1.879,3.887,2.835c2.404,1.742,4.804,3.478,7.118,5.267  l11.159,8.417c5.756,4.295,11.464,8.779,16.982,13.117l4.851,3.808c8.11,6.325,15.131,11.965,21.477,17.251  c0,0,13.147,10.841,14.343,11.816c2.34,1.911,4.685,3.825,6.943,5.825l12.987,11.271l5.159-6.139  c5.574-6.637,11.23-13.233,16.962-19.829c22.008-25.315,44.147-49.264,65.803-71.182c24.879-25.181,48.303-46.952,71.608-66.56  c6.228-5.255,12.653-10.498,19.108-15.592l9.854-7.656l9.998-7.386c2.177-1.636,4.416-3.203,6.659-4.773l3.53-2.486  c3.303-2.32,6.741-4.673,10.248-6.951c4.901-3.303,10.031-6.494,15.115-9.598l34.825,52.301c-3.665,2.962-7.389,6.017-11.05,9.227  c-2.687,2.288-5.453,4.807-8.174,7.327l-1.981,1.792c-2.093,1.887-4.174,3.764-6.209,5.801l-7.754,7.477l-7.839,7.957  c-5.188,5.307-10.356,10.756-15.378,16.217c-18.835,20.579-37.665,43.325-57.587,69.556c-17.54,23.047-34.767,47.362-52.658,74.327  c-8.39,12.623-16.691,25.514-24.669,38.313l-11.802,19.317l-5.734,9.685c-1.154,1.957-4.644,7.639-7.011,11.48H255.548z"/>
</svg>