<?xml version="1.0" encoding="UTF-8" standalone="no"?>
<svg
   xmlns:dc="http://purl.org/dc/elements/1.1/"
   xmlns:cc="http://creativecommons.org/ns#"
   xmlns:rdf="http://www.w3.org/1999/02/22-rdf-syntax-ns#"
   xmlns:svg="http://www.w3.org/2000/svg"
   xmlns="http://www.w3.org/2000/svg"
   xmlns:sodipodi="http://sodipodi.sourceforge.net/DTD/sodipodi-0.dtd"
   xmlns:inkscape="http://www.inkscape.org/namespaces/inkscape"
   version="1.1"
   x="0px"
   y="0px"
   viewBox="0 0 46.903141 47"
   enable-background="new 0 0 48 48"
   xml:space="preserve"
   id="svg2"
   inkscape:version="0.91 r13725"
   sodipodi:docname="template.svg"
   width="46.903141"
   height="47"><metadata
     id="metadata24"><rdf:RDF><cc:Work
         rdf:about=""><dc:format>image/svg+xml</dc:format><dc:type
           rdf:resource="http://purl.org/dc/dcmitype/StillImage" /><dc:title></dc:title></cc:Work></rdf:RDF></metadata><defs
     id="defs22" /><sodipodi:namedview
     pagecolor="#ffffff"
     bordercolor="#666666"
     borderopacity="1"
     objecttolerance="10"
     gridtolerance="10"
     guidetolerance="10"
     inkscape:pageopacity="0"
     inkscape:pageshadow="2"
     inkscape:window-width="1871"
     inkscape:window-height="1176"
     id="namedview20"
     showgrid="false"
     fit-margin-top="0"
     fit-margin-left="0"
     fit-margin-right="0"
     fit-margin-bottom="0"
     inkscape:zoom="3.9333333"
     inkscape:cx="23.5"
     inkscape:cy="17.5"
     inkscape:window-x="1649"
     inkscape:window-y="24"
     inkscape:window-maximized="1"
     inkscape:current-layer="svg2" /><g
     id="g4"
     transform="translate(-0.5,-0.5)"><path
       d="m 42.3,47.5 -36.6,0 C 2.8,47.5 0.5,45.2 0.5,42.3 L 0.5,5.7 C 0.5,2.8 2.8,0.5 5.7,0.5 l 36.5,0 c 2.9,0 5.2,2.3 5.2,5.2 l 0,36.5 c 0.1,3 -2.2,5.3 -5.1,5.3 z M 5.7,4.4 C 5,4.4 4.4,5 4.4,5.7 l 0,36.5 c 0,0.7 0.6,1.3 1.3,1.3 l 36.5,0 c 0.7,0 1.3,-0.6 1.3,-1.3 l 0,-36.5 C 43.5,5 42.9,4.4 42.2,4.4 l -36.5,0 z"
       id="path6"
       inkscape:connector-curvature="0"
       style="fill:#000000" /><g
       id="g8"><path
         d="m 35.2,14.2 -22.4,0 c -1.1,0 -2,-0.9 -2,-2 0,-1.1 0.9,-2 2,-2 l 22.4,0 c 1.1,0 2,0.9 2,2 0,1.1 -0.9,2 -2,2 z"
         id="path10"
         inkscape:connector-curvature="0"
         style="fill:#000000" /><path
         d="m 35.2,26 -22.4,0 c -1.1,0 -2,-0.9 -2,-2 0,-1.1 0.9,-2 2,-2 l 22.4,0 c 1.1,0 2,0.9 2,2 0,1.1 -0.9,2 -2,2 z"
         id="path12"
         inkscape:connector-curvature="0"
         style="fill:#000000" /><path
         d="m 35.2,37.7 -22.4,0 c -1.1,0 -2,-0.9 -2,-2 0,-1.1 0.9,-2 2,-2 l 22.4,0 c 1.1,0 2,0.9 2,2 0,1.1 -0.9,2 -2,2 z"
         id="path14"
         inkscape:connector-curvature="0"
         style="fill:#000000" /></g></g></svg>