<?xml version="1.0" encoding="UTF-8" standalone="no"?>
<svg
   xmlns:dc="http://purl.org/dc/elements/1.1/"
   xmlns:cc="http://creativecommons.org/ns#"
   xmlns:rdf="http://www.w3.org/1999/02/22-rdf-syntax-ns#"
   xmlns:svg="http://www.w3.org/2000/svg"
   xmlns="http://www.w3.org/2000/svg"
   xmlns:sodipodi="http://sodipodi.sourceforge.net/DTD/sodipodi-0.dtd"
   xmlns:inkscape="http://www.inkscape.org/namespaces/inkscape"
   version="1.1"
   x="0px"
   y="0px"
   viewBox="0 0 99.453003 43.351002"
   enable-background="new 0 0 100 100"
   xml:space="preserve"
   id="svg2"
   inkscape:version="0.91 r13725"
   sodipodi:docname="visualize.svg"
   width="99.453003"
   height="43.351002"><metadata
     id="metadata16"><rdf:RDF><cc:Work
         rdf:about=""><dc:format>image/svg+xml</dc:format><dc:type
           rdf:resource="http://purl.org/dc/dcmitype/StillImage" /><dc:title></dc:title></cc:Work></rdf:RDF></metadata><defs
     id="defs14" /><sodipodi:namedview
     pagecolor="#ffffff"
     bordercolor="#666666"
     borderopacity="1"
     objecttolerance="10"
     gridtolerance="10"
     guidetolerance="10"
     inkscape:pageopacity="0"
     inkscape:pageshadow="2"
     inkscape:window-width="1871"
     inkscape:window-height="1176"
     id="namedview12"
     showgrid="false"
     fit-margin-top="0"
     fit-margin-left="0"
     fit-margin-right="0"
     fit-margin-bottom="0"
     inkscape:zoom="1.888"
     inkscape:cx="49.727"
     inkscape:cy="9.175"
     inkscape:window-x="1649"
     inkscape:window-y="24"
     inkscape:window-maximized="1"
     inkscape:current-layer="svg2" /><g
     id="g4"
     transform="translate(-0.273,-28.324)"><path
       d="m 50,28.324 c -21.027,0 -37.917,10.081 -49.727,25.627 1.426,1.876 2.954,5.411 4.571,7.121 8.745,-11.016 19.135,-18.93 32.976,-21.895 0.373,-0.052 0.752,-0.083 1.14,-0.083 4.715,0 8.54,3.824 8.54,8.539 0,4.717 -3.825,8.539 -8.54,8.539 -3.469,0 -6.449,-2.072 -7.786,-5.044 -0.047,0.544 -0.076,1.092 -0.076,1.646 0,10.438 8.462,18.901 18.901,18.901 10.438,0 18.903,-8.463 18.903,-18.901 0,-5.197 -2.1,-9.902 -5.494,-13.318 13.332,3.16 23.264,10.927 31.748,21.616 1.617,-1.709 3.145,-5.244 4.57,-7.121 C 87.916,38.405 71.031,28.324 50,28.324 Z"
       id="path6"
       inkscape:connector-curvature="0" /></g></svg>